<svg width="12" height="12" viewBox="0 0 12 12" fill="none" xmlns="http://www.w3.org/2000/svg">
<path d="M10.5 6.74854H6.75V10.4985C6.75 10.6974 6.67098 10.8882 6.53033 11.0289C6.38968 11.1695 6.19891 11.2485 6 11.2485C5.80109 11.2485 5.61032 11.1695 5.46967 11.0289C5.32902 10.8882 5.25 10.6974 5.25 10.4985V6.74854H1.5C1.30109 6.74854 1.11032 6.66952 0.96967 6.52886C0.829018 6.38821 0.75 6.19745 0.75 5.99854C0.75 5.79962 0.829018 5.60886 0.96967 5.46821C1.11032 5.32755 1.30109 5.24854 1.5 5.24854H5.25V1.49854C5.25 1.29962 5.32902 1.10886 5.46967 0.968205C5.61032 0.827553 5.80109 0.748535 6 0.748535C6.19891 0.748535 6.38968 0.827553 6.53033 0.968205C6.67098 1.10886 6.75 1.29962 6.75 1.49854V5.24854H10.5C10.6989 5.24854 10.8897 5.32755 11.0303 5.46821C11.171 5.60886 11.25 5.79962 11.25 5.99854C11.25 6.19745 11.171 6.38821 11.0303 6.52886C10.8897 6.66952 10.6989 6.74854 10.5 6.74854Z" fill="#181A29"/>
</svg>
