<svg width="34" height="34" viewBox="0 0 34 34" fill="none" xmlns="http://www.w3.org/2000/svg">
<g id="arrow move">
<path id="arrow move_2" d="M17.6018 3.64816C17.5228 3.569 17.429 3.5062 17.3257 3.46335C17.2225 3.42049 17.1118 3.39844 17 3.39844C16.8882 3.39844 16.7774 3.42049 16.6742 3.46335C16.5709 3.5062 16.4771 3.569 16.3982 3.64816L12.1482 7.89816C11.9885 8.05776 11.8989 8.27424 11.8989 8.49996C11.8989 8.72568 11.9885 8.94215 12.1482 9.10176C12.3078 9.26136 12.5242 9.35103 12.75 9.35103C12.9757 9.35103 13.1921 9.26136 13.3518 9.10176L16.15 6.30186V12.75C16.15 12.9754 16.2395 13.1916 16.3989 13.351C16.5583 13.5104 16.7745 13.6 17 13.6C17.2254 13.6 17.4416 13.5104 17.601 13.351C17.7604 13.1916 17.85 12.9754 17.85 12.75V6.30186L20.6482 9.10176C20.8078 9.26136 21.0242 9.35103 21.25 9.35103C21.4757 9.35103 21.6921 9.26136 21.8518 9.10176C22.0114 8.94215 22.101 8.72568 22.101 8.49996C22.101 8.27424 22.0114 8.05776 21.8518 7.89816L17.6018 3.64816ZM3.64816 16.3982C3.569 16.4771 3.5062 16.5709 3.46335 16.6742C3.42049 16.7774 3.39844 16.8882 3.39844 17C3.39844 17.1118 3.42049 17.2225 3.46335 17.3257C3.5062 17.429 3.569 17.5228 3.64816 17.6018L7.89816 21.8518C8.05776 22.0114 8.27424 22.101 8.49996 22.101C8.72568 22.101 8.94215 22.0114 9.10176 21.8518C9.26136 21.6921 9.35103 21.4757 9.35103 21.25C9.35103 21.0242 9.26136 20.8078 9.10176 20.6482L6.30186 17.85H12.75C12.9754 17.85 13.1916 17.7604 13.351 17.601C13.5104 17.4416 13.6 17.2254 13.6 17C13.6 16.7745 13.5104 16.5583 13.351 16.3989C13.1916 16.2395 12.9754 16.15 12.75 16.15H6.30186L9.10176 13.3518C9.26136 13.1921 9.35103 12.9757 9.35103 12.75C9.35103 12.5242 9.26136 12.3078 9.10176 12.1482C8.94215 11.9885 8.72568 11.8989 8.49996 11.8989C8.27424 11.8989 8.05776 11.9885 7.89816 12.1482L3.64816 16.3982ZM17 30.6C16.8883 30.6002 16.7776 30.5783 16.6744 30.5357C16.5711 30.4932 16.4772 30.4306 16.3982 30.3518L12.1482 26.1018C11.9885 25.9422 11.8989 25.7257 11.8989 25.5C11.8989 25.2742 11.9885 25.0578 12.1482 24.8982C12.3078 24.7385 12.5242 24.6489 12.75 24.6489C12.9757 24.6489 13.1921 24.7385 13.3518 24.8982L16.15 27.6981V21.25C16.15 21.0245 16.2395 20.8083 16.3989 20.6489C16.5583 20.4895 16.7745 20.4 17 20.4C17.2254 20.4 17.4416 20.4895 17.601 20.6489C17.7604 20.8083 17.85 21.0245 17.85 21.25V27.6981L20.6482 24.8982C20.8078 24.7385 21.0242 24.6489 21.25 24.6489C21.4757 24.6489 21.6921 24.7385 21.8518 24.8982C22.0114 25.0578 22.101 25.2742 22.101 25.5C22.101 25.7257 22.0114 25.9422 21.8518 26.1018L17.6018 30.3518C17.5227 30.4306 17.4288 30.4932 17.3256 30.5357C17.2223 30.5783 17.1117 30.6002 17 30.6ZM30.3518 17.6018C30.4309 17.5228 30.4937 17.429 30.5366 17.3257C30.5794 17.2225 30.6015 17.1118 30.6015 17C30.6015 16.8882 30.5794 16.7774 30.5366 16.6742C30.4937 16.5709 30.4309 16.4771 30.3518 16.3982L26.1018 12.1482C25.9421 11.9885 25.7257 11.8989 25.5 11.8989C25.2742 11.8989 25.0578 11.9885 24.8982 12.1482C24.7385 12.3078 24.6489 12.5242 24.6489 12.75C24.6489 12.9757 24.7385 13.1921 24.8982 13.3518L27.6981 16.15H21.25C21.0245 16.15 20.8083 16.2395 20.6489 16.3989C20.4895 16.5583 20.4 16.7745 20.4 17C20.4 17.2254 20.4895 17.4416 20.6489 17.601C20.8083 17.7604 21.0245 17.85 21.25 17.85H27.6981L24.8982 20.6482C24.7385 20.8078 24.6489 21.0242 24.6489 21.25C24.6489 21.4757 24.7385 21.6921 24.8982 21.8518C25.0578 22.0114 25.2742 22.101 25.5 22.101C25.7257 22.101 25.9421 22.0114 26.1018 21.8518L30.3518 17.6018Z" fill="white"/>
</g>
</svg>
