<svg width="29" height="29" viewBox="0 0 29 29" fill="none" xmlns="http://www.w3.org/2000/svg">
<path d="M9.94031 0L9.65348 0.90625H18.5384L18.2516 0H9.94031ZM9.44105 2.07143V6.80348C12.5219 7.21317 15.6226 7.22424 18.751 6.804V2.07143H9.44105ZM3.94839 4.14286L0.426683 10.2277H27.7653L24.2436 4.14286H19.9311V4.4416C20.0009 4.4537 20.071 4.46587 20.1388 4.47843C20.9249 4.62395 21.5702 4.79445 22.0677 5.01221C22.3164 5.12102 22.5307 5.2391 22.7162 5.40688C22.9018 5.57473 23.0781 5.83243 23.0781 6.14955C23.0781 6.46674 22.9018 6.72438 22.7162 6.89223C22.5307 7.06001 22.3164 7.17802 22.0677 7.2869C21.5702 7.50466 20.9249 7.67516 20.1388 7.82068C18.5667 8.11171 16.4433 8.28571 14.096 8.28571L14.0723 8.28558C11.7345 8.28442 9.61997 8.11081 8.05322 7.82068C7.26712 7.67516 6.62185 7.50466 6.12436 7.2869C5.87561 7.17802 5.66129 7.06001 5.47581 6.89223C5.29027 6.72438 5.1139 6.46668 5.1139 6.14955C5.1139 5.83237 5.29027 5.57473 5.47581 5.40688C5.66129 5.2391 5.87561 5.12102 6.12436 5.01221C6.62185 4.79445 7.26712 4.62395 8.05322 4.47843C8.12238 4.46576 8.19162 4.45348 8.26092 4.4416V4.14286H3.94839ZM8.26092 5.62548C7.53298 5.76077 6.95294 5.92422 6.60264 6.07751C6.53537 6.10696 6.52527 6.1225 6.47663 6.14955C6.52527 6.17661 6.53537 6.19215 6.60264 6.2216C6.95288 6.37489 7.53298 6.53833 8.26092 6.67362V5.62548ZM19.9311 5.62548V6.67362C20.6591 6.53833 21.2391 6.37489 21.5894 6.2216C21.6567 6.19215 21.6668 6.17661 21.7154 6.14955C21.6668 6.1225 21.6567 6.10696 21.5894 6.07751C21.2392 5.92422 20.6591 5.76077 19.9311 5.62548ZM3.60596 8.15625H7.80198V9.32143H3.60596V8.15625ZM20.39 8.15625H24.5861V9.32143H20.39V8.15625ZM0 11.3929V17.4777H4.45073C4.97852 18.3478 5.62916 19.1926 6.48908 19.6171C9.91225 21.307 15.3462 20.8498 19.9682 20.5299C22.2791 20.37 24.3869 20.2311 25.848 20.3449C26.5786 20.4018 27.1437 20.5313 27.4537 20.6905C27.7636 20.8498 27.8171 20.9294 27.8198 21.1738C27.8262 21.7568 27.6909 22.0381 27.4829 22.2318C27.2749 22.4255 26.9126 22.5658 26.3571 22.6168C25.2458 22.7189 23.4935 22.4328 21.4967 22.1283C17.7506 21.557 13.0261 20.9385 9.23145 23.3036H12.0714C15.0121 22.417 18.3684 22.8302 21.3165 23.2798C23.2991 23.5822 25.0633 23.9058 26.4664 23.777C27.1679 23.7125 27.8123 23.527 28.2928 23.0794C28.7734 22.6318 29.0085 21.9561 28.9998 21.1611C28.9926 20.5068 28.5585 19.9447 27.9984 19.6569C27.4383 19.3692 26.7506 19.2464 25.9407 19.1834C24.321 19.0572 22.1972 19.2077 19.8857 19.3677C15.2625 19.6876 9.88773 19.9921 7.01686 18.5748C6.68708 18.412 6.28368 17.9942 5.89489 17.4777H28.192V11.3929H0ZM0.91788 12.2991H6.29403V16.5714H5.28738C5.21101 16.444 5.13728 16.3151 5.06624 16.1848C4.92718 15.9286 4.79465 15.669 4.6688 15.4062H5.1139V13.4643H2.09801V15.4062H3.37111C3.54776 15.8007 3.73742 16.1893 3.9398 16.5714H0.91788V12.8817V12.2991ZM7.94412 12.2991H13.3203V16.5714H7.94412V12.8817V12.2991ZM14.9326 12.2991H20.3088V16.5714H14.9326V12.8817V12.2991ZM21.898 12.2991H27.2741V16.5714H21.898V12.8817V12.2991ZM9.12425 13.4643V15.4062H12.1401V13.4643H9.12425ZM16.1127 13.4643V15.4062H19.1286V13.4643H16.1127ZM23.0781 13.4643V15.4062H26.094V13.4643H23.0781ZM4.52384 24.4688C4.26978 24.4688 4.0807 24.6106 3.87463 25.0304C3.6685 25.4501 3.54039 26.0929 3.54039 26.7344C3.54039 27.3759 3.6685 28.0187 3.87463 28.4384C4.08063 28.8581 4.26978 29 4.52384 29H13.9649C14.2189 29 14.408 28.8581 14.6141 28.4384C14.8202 28.0187 14.9483 27.3759 14.9483 26.7344C14.9483 26.0929 14.8202 25.4501 14.6141 25.0304C14.4081 24.6106 14.2189 24.4688 13.9649 24.4688H4.52384ZM12.2671 25.1161C12.4236 25.1161 12.5737 25.1775 12.6843 25.2867C12.795 25.396 12.8571 25.5441 12.8571 25.6987C12.8571 25.8532 12.795 26.0014 12.6843 26.1106C12.5737 26.2199 12.4236 26.2812 12.2671 26.2812C12.1106 26.2812 11.9605 26.2199 11.8498 26.1106C11.7392 26.0014 11.677 25.8532 11.677 25.6987C11.677 25.5441 11.7392 25.396 11.8498 25.2867C11.9605 25.1775 12.1106 25.1161 12.2671 25.1161ZM5.50728 25.3103H6.68741V26.1518H7.53973V27.317H6.68741V28.1585H5.50728V27.317H4.65496V26.1518H5.50728V25.3103ZM11.2181 26.1518C11.3746 26.1518 11.5246 26.2132 11.6353 26.3224C11.746 26.4317 11.8081 26.5799 11.8081 26.7344C11.8081 26.8889 11.746 27.0371 11.6353 27.1463C11.5246 27.2556 11.3746 27.317 11.2181 27.317C11.0616 27.317 10.9115 27.2556 10.8008 27.1463C10.6902 27.0371 10.628 26.8889 10.628 26.7344C10.628 26.5799 10.6902 26.4317 10.8008 26.3224C10.9115 26.2132 11.0616 26.1518 11.2181 26.1518ZM13.3161 26.1518C13.4726 26.1518 13.6227 26.2132 13.7333 26.3224C13.844 26.4317 13.9061 26.5799 13.9061 26.7344C13.9061 26.8889 13.844 27.0371 13.7333 27.1463C13.6227 27.2556 13.4726 27.317 13.3161 27.317C13.1596 27.317 13.0095 27.2556 12.8988 27.1463C12.7882 27.0371 12.726 26.8889 12.726 26.7344C12.726 26.5799 12.7882 26.4317 12.8988 26.3224C13.0095 26.2132 13.1596 26.1518 13.3161 26.1518ZM12.2671 27.0345C12.4236 27.0345 12.5737 27.0959 12.6843 27.2052C12.795 27.3144 12.8571 27.4626 12.8571 27.6171C12.8571 27.7716 12.795 27.9198 12.6843 28.0291C12.5737 28.1383 12.4236 28.1997 12.2671 28.1997C12.1106 28.1997 11.9605 28.1383 11.8498 28.0291C11.7392 27.9198 11.677 27.7716 11.677 27.6171C11.677 27.4626 11.7392 27.3144 11.8498 27.2052C11.9605 27.0959 12.1106 27.0345 12.2671 27.0345Z" fill="white"/>
</svg>
