<svg width="23" height="16" viewBox="0 0 23 16" fill="none" xmlns="http://www.w3.org/2000/svg">
<path id="Vector" fill-rule="evenodd" clip-rule="evenodd" d="M23 1.05589C23 1.31599 22.8961 1.56543 22.7113 1.74935C22.5264 1.93327 22.2757 2.03659 22.0143 2.03659H0.985714C0.724287 2.03659 0.473566 1.93327 0.288709 1.74935C0.103852 1.56543 0 1.31599 0 1.05589C0 0.795796 0.103852 0.546351 0.288709 0.362435C0.473566 0.178518 0.724287 0.0751953 0.985714 0.0751953H22.0143C22.2757 0.0751953 22.5264 0.178518 22.7113 0.362435C22.8961 0.546351 23 0.795796 23 1.05589ZM23 7.59388C23 7.85397 22.8961 8.10342 22.7113 8.28733C22.5264 8.47125 22.2757 8.57457 22.0143 8.57457H0.985714C0.724287 8.57457 0.473566 8.47125 0.288709 8.28733C0.103852 8.10342 0 7.85397 0 7.59388C0 7.33378 0.103852 7.08433 0.288709 6.90042C0.473566 6.7165 0.724287 6.61318 0.985714 6.61318H22.0143C22.2757 6.61318 22.5264 6.7165 22.7113 6.90042C22.8961 7.08433 23 7.33378 23 7.59388ZM23 14.1319C23 14.392 22.8961 14.6414 22.7113 14.8253C22.5264 15.0092 22.2757 15.1126 22.0143 15.1126H0.985714C0.724287 15.1126 0.473566 15.0092 0.288709 14.8253C0.103852 14.6414 0 14.392 0 14.1319C0 13.8718 0.103852 13.6223 0.288709 13.4384C0.473566 13.2545 0.724287 13.1512 0.985714 13.1512H22.0143C22.2757 13.1512 22.5264 13.2545 22.7113 13.4384C22.8961 13.6223 23 13.8718 23 14.1319Z" fill="white"/>
</svg>
