<svg width="29" height="29" viewBox="0 0 29 29" fill="none" xmlns="http://www.w3.org/2000/svg">
<g id="entypo:user">
<path id="user" d="M11.2014 3.11129C9.72825 4.20749 9.3324 5.94314 9.4049 6.86679C9.4977 7.99634 9.7268 9.46664 9.7268 9.46664C9.7268 9.46664 9.27295 9.71314 9.27295 10.7049C9.431 13.1946 10.2633 12.1201 10.4344 13.212C10.8462 15.8423 11.7872 15.3739 11.7872 16.8094C11.7872 19.2005 10.8012 20.3184 7.7229 21.6437C4.6344 22.9748 1.4502 24.6496 1.4502 27.5496V28.9996H27.5502V27.5496C27.5502 24.6496 24.3645 22.9748 21.2746 21.6452C18.1962 20.3199 17.2131 19.2034 17.2131 16.8109C17.2131 15.3754 18.1513 15.8437 18.5645 13.2134C18.7371 12.1216 19.5679 13.196 19.7289 10.7064C19.7289 9.71459 19.2736 9.46809 19.2736 9.46809C19.2736 9.46809 19.5027 7.99779 19.594 6.86824C19.6883 5.68359 19.0169 3.15479 16.259 2.37904C15.7762 1.88604 15.4499 1.10159 16.9347 0.314243C13.6867 0.161993 12.9313 1.86139 11.2014 3.11129Z" fill="white"/>
</g>
</svg>
