<svg width="45" height="45" viewBox="0 0 45 45" fill="none" xmlns="http://www.w3.org/2000/svg">
<g id="fluent:money-20-regular">
<path id="Vector" d="M29.25 20.25C29.25 19.0565 28.7759 17.9119 27.932 17.068C27.0881 16.2241 25.9435 15.75 24.75 15.75C23.5565 15.75 22.4119 16.2241 21.568 17.068C20.7241 17.9119 20.25 19.0565 20.25 20.25C20.25 21.4435 20.7241 22.5881 21.568 23.432C22.4119 24.2759 23.5565 24.75 24.75 24.75C25.9435 24.75 27.0881 24.2759 27.932 23.432C28.7759 22.5881 29.25 21.4435 29.25 20.25ZM24.75 18C25.3467 18 25.919 18.2371 26.341 18.659C26.7629 19.081 27 19.6533 27 20.25C27 20.8467 26.7629 21.419 26.341 21.841C25.919 22.2629 25.3467 22.5 24.75 22.5C24.1533 22.5 23.581 22.2629 23.159 21.841C22.7371 21.419 22.5 20.8467 22.5 20.25C22.5 19.6533 22.7371 19.081 23.159 18.659C23.581 18.2371 24.1533 18 24.75 18ZM37.125 9C38.0201 9 38.8786 9.35558 39.5115 9.98851C40.1444 10.6214 40.5 11.4799 40.5 12.375V28.125C40.5 29.0201 40.1444 29.8786 39.5115 30.5115C38.8786 31.1444 38.0201 31.5 37.125 31.5H12.375C11.4799 31.5 10.6214 31.1444 9.98851 30.5115C9.35558 29.8786 9 29.0201 9 28.125V12.375C9 11.4799 9.35558 10.6214 9.98851 9.98851C10.6214 9.35558 11.4799 9 12.375 9H37.125ZM38.25 12.375C38.25 12.0766 38.1315 11.7905 37.9205 11.5795C37.7095 11.3685 37.4234 11.25 37.125 11.25H33.75V13.5C33.75 14.0967 33.9871 14.669 34.409 15.091C34.831 15.5129 35.4033 15.75 36 15.75H38.25V12.375ZM38.25 18H36C34.8065 18 33.6619 17.5259 32.818 16.682C31.9741 15.8381 31.5 14.6935 31.5 13.5V11.25H18V13.5C18 14.6935 17.5259 15.8381 16.682 16.682C15.8381 17.5259 14.6935 18 13.5 18H11.25V22.5H13.5C14.6935 22.5 15.8381 22.9741 16.682 23.818C17.5259 24.6619 18 25.8065 18 27V29.25H31.5V27C31.5 25.8065 31.9741 24.6619 32.818 23.818C33.6619 22.9741 34.8065 22.5 36 22.5H38.25V18ZM15.75 11.25H12.375C12.0766 11.25 11.7905 11.3685 11.5795 11.5795C11.3685 11.7905 11.25 12.0766 11.25 12.375V15.75H13.5C14.0967 15.75 14.669 15.5129 15.091 15.091C15.5129 14.669 15.75 14.0967 15.75 13.5V11.25ZM11.25 24.75V28.125C11.25 28.4234 11.3685 28.7095 11.5795 28.9205C11.7905 29.1315 12.0766 29.25 12.375 29.25H15.75V27C15.75 26.4033 15.5129 25.831 15.091 25.409C14.669 24.9871 14.0967 24.75 13.5 24.75H11.25ZM33.75 29.25H37.125C37.4234 29.25 37.7095 29.1315 37.9205 28.9205C38.1315 28.7095 38.25 28.4234 38.25 28.125V24.75H36C35.4033 24.75 34.831 24.9871 34.409 25.409C33.9871 25.831 33.75 26.4033 33.75 27V29.25ZM6.75 28.125C6.75 29.6168 7.34263 31.0476 8.39752 32.1025C9.45242 33.1574 10.8832 33.75 12.375 33.75H35.8087C35.576 34.4083 35.1448 34.9782 34.5746 35.3812C34.0044 35.7842 33.3232 36.0004 32.625 36H12.375C10.2864 36 8.28338 35.1703 6.80653 33.6935C5.32968 32.2166 4.5 30.2136 4.5 28.125V16.875C4.49963 16.1768 4.71584 15.4956 5.11881 14.9254C5.52179 14.3552 6.0917 13.924 6.75 13.6913V28.125Z" fill="#52B481"/>
</g>
</svg>
