<svg width="22" height="22" viewBox="0 0 22 22" fill="none" xmlns="http://www.w3.org/2000/svg">
<g id="ic:baseline-lock-reset">
<path id="Vector" d="M11.9165 2.75C9.72847 2.75 7.63005 3.61919 6.08287 5.16637C4.5357 6.71354 3.6665 8.81196 3.6665 11H0.916504L4.58317 14.6667L8.24984 11H5.49984C5.49984 7.46167 8.37817 4.58333 11.9165 4.58333C15.4548 4.58333 18.3332 7.46167 18.3332 11C18.3332 14.5383 15.4548 17.4167 11.9165 17.4167C10.1748 17.4167 8.59817 16.72 7.44317 15.5925L6.1415 16.885C7.6816 18.4006 9.75575 19.25 11.9165 19.25C14.1045 19.25 16.203 18.3808 17.7501 16.8336C19.2973 15.2865 20.1665 13.188 20.1665 11C20.1665 8.81196 19.2973 6.71354 17.7501 5.16637C16.203 3.61919 14.1045 2.75 11.9165 2.75ZM13.7498 10.0833V9.16667C13.7498 8.15833 12.9248 7.33333 11.9165 7.33333C10.9082 7.33333 10.0832 8.15833 10.0832 9.16667V10.0833C9.579 10.0833 9.1665 10.4958 9.1665 11V13.75C9.1665 14.2542 9.579 14.6667 10.0832 14.6667H13.7498C14.254 14.6667 14.6665 14.2542 14.6665 13.75V11C14.6665 10.4958 14.254 10.0833 13.7498 10.0833ZM12.8332 10.0833H10.9998V9.16667C10.9998 8.6625 11.4123 8.25 11.9165 8.25C12.4207 8.25 12.8332 8.6625 12.8332 9.16667V10.0833Z" fill="white"/>
</g>
</svg>
