<svg width="32" height="42" viewBox="0 0 32 42" fill="none" xmlns="http://www.w3.org/2000/svg">
<g id="password" filter="url(#filter0_d_1142_601)">
<path d="M16 28.1905C16.9283 28.1905 17.8185 27.8192 18.4749 27.1584C19.1313 26.4975 19.5 25.6012 19.5 24.6667C19.5 23.7321 19.1313 22.8358 18.4749 22.175C17.8185 21.5141 16.9283 21.1429 16 21.1429C15.0717 21.1429 14.1815 21.5141 13.5251 22.175C12.8687 22.8358 12.5 23.7321 12.5 24.6667C12.5 25.6012 12.8687 26.4975 13.5251 27.1584C14.1815 27.8192 15.0717 28.1905 16 28.1905ZM26.5 12.3333C27.4283 12.3333 28.3185 12.7046 28.9749 13.3654C29.6313 14.0263 30 14.9226 30 15.8571V33.4762C30 34.4108 29.6313 35.3071 28.9749 35.9679C28.3185 36.6287 27.4283 37 26.5 37H5.5C4.57174 37 3.6815 36.6287 3.02513 35.9679C2.36875 35.3071 2 34.4108 2 33.4762V15.8571C2 14.9226 2.36875 14.0263 3.02513 13.3654C3.6815 12.7046 4.57174 12.3333 5.5 12.3333H7.25V8.80952C7.25 6.47309 8.17187 4.23236 9.81282 2.58025C11.4538 0.928144 13.6794 0 16 0C17.1491 0 18.2869 0.227865 19.3485 0.670585C20.4101 1.11331 21.3747 1.76221 22.1872 2.58025C22.9997 3.39829 23.6442 4.36944 24.0839 5.43826C24.5237 6.50709 24.75 7.65264 24.75 8.80952V12.3333H26.5ZM16 3.52381C14.6076 3.52381 13.2723 4.0807 12.2877 5.07196C11.3031 6.06322 10.75 7.40767 10.75 8.80952V12.3333H21.25V8.80952C21.25 7.40767 20.6969 6.06322 19.7123 5.07196C18.7277 4.0807 17.3924 3.52381 16 3.52381Z" fill="white"/>
</g>
<defs>
<filter id="filter0_d_1142_601" x="0" y="0" width="32" height="42" filterUnits="userSpaceOnUse" color-interpolation-filters="sRGB">
<feFlood flood-opacity="0" result="BackgroundImageFix"/>
<feColorMatrix in="SourceAlpha" type="matrix" values="0 0 0 0 0 0 0 0 0 0 0 0 0 0 0 0 0 0 127 0" result="hardAlpha"/>
<feOffset dy="3"/>
<feGaussianBlur stdDeviation="1"/>
<feComposite in2="hardAlpha" operator="out"/>
<feColorMatrix type="matrix" values="0 0 0 0 0 0 0 0 0 0 0 0 0 0 0 0 0 0 0.45 0"/>
<feBlend mode="normal" in2="BackgroundImageFix" result="effect1_dropShadow_1142_601"/>
<feBlend mode="normal" in="SourceGraphic" in2="effect1_dropShadow_1142_601" result="shape"/>
</filter>
</defs>
</svg>
