<svg width="45" height="45" viewBox="0 0 45 45" fill="none" xmlns="http://www.w3.org/2000/svg">
<g id="pepicons-pencil:persons">
<g id="Group">
<path id="Vector" fill-rule="evenodd" clip-rule="evenodd" d="M7.56015 22.448C6.20588 24.4804 5.48329 26.8682 5.4834 29.3105V31.4998C5.4834 31.7981 5.36487 32.0843 5.15389 32.2952C4.94291 32.5062 4.65677 32.6248 4.3584 32.6248C4.06003 32.6248 3.77388 32.5062 3.5629 32.2952C3.35192 32.0843 3.2334 31.7981 3.2334 31.4998V29.3127C3.23408 26.4248 4.08979 23.6016 5.69265 21.1992L5.93565 20.8348C6.01764 20.7118 6.12304 20.6063 6.24584 20.5241C6.36863 20.4419 6.5064 20.3847 6.6513 20.3558C6.79619 20.3268 6.94537 20.3267 7.0903 20.3554C7.23524 20.3841 7.37311 20.4411 7.49602 20.5231C7.61894 20.6051 7.7245 20.7105 7.80669 20.8333C7.88887 20.9561 7.94606 21.0939 7.975 21.2388C8.00394 21.3837 8.00405 21.5328 7.97534 21.6778C7.94662 21.8227 7.88964 21.9606 7.80765 22.0835L7.56465 22.448H7.56015Z" fill="url(#paint0_linear_375_268)"/>
<path id="Vector_2" fill-rule="evenodd" clip-rule="evenodd" d="M13.9058 18.8213C11.4533 18.8213 9.16508 20.0453 7.80608 22.0838L5.93408 20.8373C6.8088 19.5253 7.99385 18.4495 9.38407 17.7053C10.7743 16.9611 12.3267 16.5716 13.9036 16.5713H14.3986C14.697 16.5713 14.9831 16.6898 15.1941 16.9008C15.4051 17.1118 15.5236 17.3979 15.5236 17.6963C15.5236 17.9947 15.4051 18.2808 15.1941 18.4918C14.9831 18.7028 14.697 18.8213 14.3986 18.8213H13.9058ZM20.8313 22.4213C21.8888 24.0098 22.4536 25.8728 22.4536 27.7808H24.7036C24.7041 25.4295 24.008 23.1308 22.7033 21.1748L22.4783 20.8373C22.3986 20.7096 22.2941 20.5992 22.171 20.5127C22.0478 20.4261 21.9086 20.3652 21.7614 20.3334C21.6143 20.3016 21.4623 20.2997 21.3144 20.3278C21.1666 20.3558 21.0258 20.4133 20.9005 20.4967C20.7752 20.5801 20.668 20.6878 20.5851 20.8134C20.5022 20.9391 20.4453 21.08 20.4179 21.228C20.3905 21.376 20.393 21.528 20.4254 21.675C20.4577 21.822 20.5193 21.961 20.6063 22.0838L20.8313 22.4213Z" fill="url(#paint1_linear_375_268)"/>
<path id="Vector_3" fill-rule="evenodd" clip-rule="evenodd" d="M14.5082 18.8213C16.9584 18.8213 19.2467 20.0453 20.6057 22.0838L22.4777 20.8373C21.603 19.5253 20.4179 18.4495 19.0277 17.7053C17.6375 16.9611 16.0851 16.5716 14.5082 16.5713H14.0132C13.8654 16.5713 13.7192 16.6004 13.5827 16.6569C13.4462 16.7135 13.3222 16.7963 13.2177 16.9008C13.1132 17.0053 13.0304 17.1293 12.9738 17.2658C12.9173 17.4023 12.8882 17.5486 12.8882 17.6963C12.8882 17.844 12.9173 17.9903 12.9738 18.1268C13.0304 18.2633 13.1132 18.3873 13.2177 18.4918C13.3222 18.5963 13.4462 18.6791 13.5827 18.7357C13.7192 18.7922 13.8654 18.8213 14.0132 18.8213H14.5082Z" fill="url(#paint2_linear_375_268)"/>
<path id="Vector_4" fill-rule="evenodd" clip-rule="evenodd" d="M14.062 16.3125C14.7268 16.3125 15.3851 16.1816 15.9993 15.9271C16.6136 15.6727 17.1716 15.2998 17.6417 14.8297C18.1118 14.3596 18.4847 13.8015 18.7391 13.1873C18.9936 12.5731 19.1245 11.9148 19.1245 11.25C19.1245 10.5852 18.9936 9.92688 18.7391 9.31267C18.4847 8.69845 18.1118 8.14037 17.6417 7.67027C17.1716 7.20018 16.6136 6.82727 15.9993 6.57286C15.3851 6.31845 14.7268 6.1875 14.062 6.1875C12.7194 6.1875 11.4317 6.72087 10.4823 7.67027C9.53288 8.61967 8.99951 9.90734 8.99951 11.25C8.99951 12.5927 9.53288 13.8803 10.4823 14.8297C11.4317 15.7791 12.7194 16.3125 14.062 16.3125ZM14.062 18.5625C16.0014 18.5625 17.8614 17.7921 19.2327 16.4207C20.6041 15.0494 21.3745 13.1894 21.3745 11.25C21.3745 9.3106 20.6041 7.45064 19.2327 6.07928C17.8614 4.70792 16.0014 3.9375 14.062 3.9375C12.1226 3.9375 10.2627 4.70792 8.89129 6.07928C7.51993 7.45064 6.74951 9.3106 6.74951 11.25C6.74951 13.1894 7.51993 15.0494 8.89129 16.4207C10.2627 17.7921 12.1226 18.5625 14.062 18.5625ZM23.6425 29.6685C22.2878 31.7016 21.5652 34.0902 21.5658 36.5332V38.8597C21.5658 39.1581 21.4472 39.4443 21.2363 39.6552C21.0253 39.8662 20.7391 39.9847 20.4408 39.9847C20.1424 39.9847 19.8562 39.8662 19.6453 39.6552C19.4343 39.4443 19.3158 39.1581 19.3158 38.8597V36.5332C19.3156 33.6465 20.1697 30.8242 21.7705 28.422L22.0698 27.972C22.2357 27.7238 22.4934 27.5516 22.7862 27.4934C23.079 27.4351 23.383 27.4956 23.6313 27.6615C23.8795 27.8274 24.0517 28.0851 24.1099 28.3779C24.1681 28.6708 24.1077 28.9748 23.9418 29.223L23.6425 29.6685Z" fill="url(#paint3_linear_375_268)"/>
<path id="Vector_5" fill-rule="evenodd" clip-rule="evenodd" d="M30.1956 25.875C28.9579 25.8748 27.7393 26.1803 26.6481 26.7644C25.5569 27.3485 24.6268 28.193 23.9406 29.223L22.0708 27.9743C22.9624 26.6365 24.1705 25.5396 25.5878 24.7809C27.0052 24.0222 28.5879 23.6251 30.1956 23.625H30.6996C30.9979 23.625 31.2841 23.7435 31.495 23.9545C31.706 24.1655 31.8246 24.4516 31.8246 24.75C31.8246 25.0484 31.706 25.3345 31.495 25.5455C31.2841 25.7565 30.9979 25.875 30.6996 25.875H30.1956ZM37.3663 29.6685C38.7218 31.7013 39.4452 34.0899 39.4453 36.5333V38.8598C39.4453 39.1581 39.5638 39.4443 39.7748 39.6552C39.9858 39.8662 40.2719 39.9848 40.5703 39.9848C40.8687 39.9848 41.1548 39.8662 41.3658 39.6552C41.5768 39.4443 41.6953 39.1581 41.6953 38.8598V36.5333C41.6948 33.6463 40.8399 30.824 39.2383 28.422L38.9391 27.972C38.7732 27.7238 38.5154 27.5516 38.2226 27.4934C37.9298 27.4351 37.6258 27.4956 37.3775 27.6615C37.1293 27.8274 36.9571 28.0851 36.8989 28.3779C36.8407 28.6708 36.9012 28.9748 37.0671 29.223L37.3663 29.6685Z" fill="url(#paint4_linear_375_268)"/>
<path id="Vector_6" fill-rule="evenodd" clip-rule="evenodd" d="M30.8144 25.875C32.052 25.8748 33.2706 26.1803 34.3618 26.7644C35.453 27.3485 36.3831 28.193 37.0694 29.223L38.9414 27.9742C38.0495 26.6362 36.8411 25.5391 35.4233 24.7804C34.0056 24.0216 32.4224 23.6248 30.8144 23.625H30.3081C30.0097 23.625 29.7236 23.7435 29.5126 23.9545C29.3016 24.1655 29.1831 24.4516 29.1831 24.75C29.1831 25.0484 29.3016 25.3345 29.5126 25.5455C29.7236 25.7565 30.0097 25.875 30.3081 25.875H30.8144Z" fill="url(#paint5_linear_375_268)"/>
<path id="Vector_7" fill-rule="evenodd" clip-rule="evenodd" d="M30.375 23.625C31.0398 23.625 31.6981 23.4941 32.3123 23.2396C32.9265 22.9852 33.4846 22.6123 33.9547 22.1422C34.4248 21.6721 34.7977 21.114 35.0521 20.4998C35.3066 19.8856 35.4375 19.2273 35.4375 18.5625C35.4375 17.8977 35.3066 17.2394 35.0521 16.6252C34.7977 16.011 34.4248 15.4529 33.9547 14.9828C33.4846 14.5127 32.9265 14.1398 32.3123 13.8854C31.6981 13.6309 31.0398 13.5 30.375 13.5C29.0323 13.5 27.7447 14.0334 26.7953 14.9828C25.8459 15.9322 25.3125 17.2198 25.3125 18.5625C25.3125 19.9052 25.8459 21.1928 26.7953 22.1422C27.7447 23.0916 29.0323 23.625 30.375 23.625ZM30.375 25.875C32.3144 25.875 34.1744 25.1046 35.5457 23.7332C36.9171 22.3619 37.6875 20.5019 37.6875 18.5625C37.6875 16.6231 36.9171 14.7631 35.5457 13.3918C34.1744 12.0204 32.3144 11.25 30.375 11.25C28.4356 11.25 26.5756 12.0204 25.2043 13.3918C23.8329 14.7631 23.0625 16.6231 23.0625 18.5625C23.0625 20.5019 23.8329 22.3619 25.2043 23.7332C26.5756 25.1046 28.4356 25.875 30.375 25.875Z" fill="url(#paint6_linear_375_268)"/>
</g>
</g>
<defs>
<linearGradient id="paint0_linear_375_268" x1="3.69428" y1="20.8047" x2="10.955" y2="23.5773" gradientUnits="userSpaceOnUse">
<stop stop-color="#FFDA3A"/>
</linearGradient>
<linearGradient id="paint1_linear_375_268" x1="7.75012" y1="17.0006" x2="16.5581" y2="31.5319" gradientUnits="userSpaceOnUse">
<stop stop-color="#FFDA3A"/>
</linearGradient>
<linearGradient id="paint2_linear_375_268" x1="13.816" y1="16.7824" x2="18.0693" y2="24.0725" gradientUnits="userSpaceOnUse">
<stop stop-color="#FFDA3A"/>
</linearGradient>
<linearGradient id="paint3_linear_375_268" x1="8.43131" y1="5.31818" x2="33.1989" y2="17.0854" gradientUnits="userSpaceOnUse">
<stop stop-color="#FFDA3A"/>
</linearGradient>
<linearGradient id="paint4_linear_375_268" x1="23.9696" y1="24.2516" x2="38.2692" y2="41.1524" gradientUnits="userSpaceOnUse">
<stop stop-color="#FFDA3A"/>
</linearGradient>
<linearGradient id="paint5_linear_375_268" x1="30.1273" y1="23.8394" x2="34.4421" y2="31.2503" gradientUnits="userSpaceOnUse">
<stop stop-color="#FFDA3A"/>
</linearGradient>
<linearGradient id="paint6_linear_375_268" x1="24.4775" y1="11.8102" x2="37.4384" y2="24.5803" gradientUnits="userSpaceOnUse">
<stop stop-color="#FFDA3A"/>
</linearGradient>
</defs>
</svg>
