<svg width="22" height="22" viewBox="0 0 22 22" fill="none" xmlns="http://www.w3.org/2000/svg">
<g id="fluent:search-20-filled">
<path id="Vector" d="M9.35004 3.30005C10.4763 3.29998 11.5803 3.6143 12.5376 4.20763C13.4949 4.80096 14.2676 5.64974 14.7687 6.65842C15.2698 7.66709 15.4793 8.79562 15.3738 9.91694C15.2683 11.0383 14.8518 12.1079 14.1713 13.0053L18.733 17.567C18.8793 17.7144 18.9646 17.9116 18.9719 18.1191C18.9792 18.3266 18.908 18.5293 18.7725 18.6866C18.6369 18.8439 18.4471 18.9443 18.2408 18.9678C18.0345 18.9913 17.8269 18.9362 17.6594 18.8133L17.567 18.7331L13.0053 14.1713C12.2404 14.7512 11.3484 15.1408 10.4031 15.3078C9.45781 15.4748 8.48636 15.4145 7.56899 15.1318C6.65163 14.8491 5.8147 14.3522 5.12734 13.6822C4.43999 13.0121 3.92194 12.1881 3.61601 11.2782C3.31008 10.3683 3.22505 9.39871 3.36794 8.44948C3.51083 7.50025 3.87754 6.59864 4.43777 5.81916C4.998 5.03967 5.73567 4.40468 6.58983 3.96665C7.44398 3.52862 8.39011 3.30013 9.35004 3.30005ZM9.35004 4.95005C8.18309 4.95005 7.06393 5.41362 6.23877 6.23878C5.41361 7.06394 4.95004 8.1831 4.95004 9.35005C4.95004 10.517 5.41361 11.6362 6.23877 12.4613C7.06393 13.2865 8.18309 13.75 9.35004 13.75C10.517 13.75 11.6361 13.2865 12.4613 12.4613C13.2865 11.6362 13.75 10.517 13.75 9.35005C13.75 8.1831 13.2865 7.06394 12.4613 6.23878C11.6361 5.41362 10.517 4.95005 9.35004 4.95005Z" fill="white"/>
</g>
</svg>
